HIERARCHY
ROOT SpineBase
{
  OFFSET 0.000000 0.000000 0.000000
  CHANNELS 6 Xposition Yposition Zposition Zrotation Xrotation Yrotation
  JOINT SpineMid
  {
    OFFSET 0.000000 28.583157 0.000000
    CHANNELS 3 Zrotation Xrotation Yrotation
    JOINT SpineShoulder
    {
      OFFSET -0.032588 21.250065 -0.744981
      CHANNELS 3 Zrotation Xrotation Yrotation
      JOINT Neck
      {
        OFFSET -0.028658 7.043049 -0.555151
        CHANNELS 3 Zrotation Xrotation Yrotation
        JOINT Head
        {
          OFFSET -2.457845 12.228408 -0.670066
          CHANNELS 3 Zrotation Xrotation Yrotation
          End Site
          {
            OFFSET 0 0 0
          }
        }
      }
      JOINT ShoulderLeft
      {
        OFFSET -16.836927 -1.848970 5.088378
        CHANNELS 3 Zrotation Xrotation Yrotation
        JOINT ElbowLeft
        {
          OFFSET -3.575519 -24.945222 2.315296
          CHANNELS 3 Zrotation Xrotation Yrotation
          JOINT WristLeft
          {
            OFFSET -2.178875 -21.228546 -4.424898
            CHANNELS 3 Zrotation Xrotation Yrotation
            JOINT HandLeft
            {
              OFFSET 0.626522 -6.609919 -1.369786
              CHANNELS 3 Zrotation Xrotation Yrotation
              JOINT HandTipLeft
              {
                OFFSET 0.343418 -6.589590 -1.564203
                CHANNELS 3 Zrotation Xrotation Yrotation
                End Site
                {
                  OFFSET 0 0 0
                }
              }
              JOINT ThumbLeft
              {
                OFFSET 3.389145 0.477219 -2.506547
                CHANNELS 3 Zrotation Xrotation Yrotation
                End Site
                {
                  OFFSET 0 0 0
                }
              }
            }
          }
        }
      }
      JOINT ShoulderRight
      {
        OFFSET 15.370038 -2.010229 -4.648980
        CHANNELS 3 Zrotation Xrotation Yrotation
        JOINT ElbowRight
        {
          OFFSET 5.973839 -24.753113 -1.930177
          CHANNELS 3 Zrotation Xrotation Yrotation
          JOINT WristRight
          {
            OFFSET 2.478910 -22.724695 -5.618345
            CHANNELS 3 Zrotation Xrotation Yrotation
            JOINT HandRight
            {
              OFFSET -1.104092 -6.366896 -2.494054
              CHANNELS 3 Zrotation Xrotation Yrotation
              JOINT HandTipRight
              {
                OFFSET 0.832209 -5.684583 -2.231810
                CHANNELS 3 Zrotation Xrotation Yrotation
                End Site
                {
                  OFFSET 0 0 0
                }
              }
              JOINT ThumbRight
              {
                OFFSET 2.500264 1.950574 -2.032293
                CHANNELS 3 Zrotation Xrotation Yrotation
                End Site
                {
                  OFFSET 0 0 0
                }
              }
            }
          }
        }
      }
    }
  }
  JOINT HipLeft
  {
    OFFSET -5.792360 0.188334 -1.833907
    CHANNELS 3 Zrotation Xrotation Yrotation
    JOINT KneeLeft
    {
      OFFSET -6.245904 -27.806479 4.336082
      CHANNELS 3 Zrotation Xrotation Yrotation
      JOINT AnkleLeft
      {
        OFFSET 1.307384 -39.577027 9.762066
        CHANNELS 3 Zrotation Xrotation Yrotation
        JOINT FootLeft
        {
          OFFSET -2.937285 -3.158507 -13.833814
          CHANNELS 3 Zrotation Xrotation Yrotation
          End Site
          {
            OFFSET 0 0 0
          }
        }
      }
    }
  }
  JOINT HipRight
  {
    OFFSET 5.323432 0.989007 -4.660407
    CHANNELS 3 Zrotation Xrotation Yrotation
    JOINT KneeRight
    {
      OFFSET 7.522836 -29.155401 2.457221
      CHANNELS 3 Zrotation Xrotation Yrotation
      JOINT AnkleRight
      {
        OFFSET 4.632769 -36.360731 8.701676
        CHANNELS 3 Zrotation Xrotation Yrotation
        JOINT FootRight
        {
          OFFSET -6.358422 -6.163777 -2.393684
          CHANNELS 3 Zrotation Xrotation Yrotation
          End Site
          {
            OFFSET 0 0 0
          }
        }
      }
    }
  }
}
MOTION
Frames: 13
Frame Time: 0.033333
27.454956 76.067931 368.136450 -0.000000 0.000000 14.266698 -0.000000 0.000000 -14.266698 -0.000000 0.000000 0.000000 -0.000000 0.000000 0.000000 0.000000 0.000000 0.000000 -0.000000 0.000000 0.000000 -0.000000 0.000000 0.000000 -0.000000 0.000000 0.000000 -0.000000 0.000000 0.000000 0.000000 0.000000 0.000000 0.000000 0.000000 0.000000 -0.000000 0.000000 0.000000 -0.000000 0.000000 0.000000 -0.000000 0.000000 0.000000 -0.000000 0.000000 0.000000 0.000000 0.000000 0.000000 0.000000 0.000000 0.000000 -0.000000 0.000000 -14.266698 -0.000000 0.000000 0.000000 -0.000000 0.000000 0.000000 0.000000 0.000000 0.000000 -0.000000 0.000000 -14.266698 -0.000000 0.000000 0.000000 -0.000000 0.000000 0.000000 0.000000 0.000000 0.000000
27.575161 75.995446 368.107117 0.110643 -0.028709 14.586700 -0.099846 0.055648 -14.586624 -0.000000 0.000000 0.000000 -0.000000 0.000000 0.000000 0.000000 0.000000 0.000000 -0.000000 0.000000 0.000000 -0.486806 -1.380818 0.237830 -0.635848 1.001854 -0.028529 0.104771 -1.849124 -0.089121 0.000000 0.000000 0.000000 0.000000 0.000000 0.000000 -0.000000 0.000000 0.000000 -0.000000 0.000000 0.000000 -0.000000 0.000000 0.000000 -0.635124 -2.111118 -0.072022 0.000000 0.000000 0.000000 0.000000 0.000000 0.000000 -0.099846 0.055648 -14.586624 -0.000000 0.000000 0.000000 1.131394 -5.264681 -0.005192 0.000000 0.000000 0.000000 -0.099846 0.055648 -14.586624 -0.000000 0.000000 0.000000 7.243967 -0.375581 -2.576849 0.000000 0.000000 0.000000
27.706276 75.925797 368.075099 0.219055 -0.062625 14.850213 -0.195688 0.116675 -14.849894 -0.000000 0.000000 0.000000 -0.000000 0.000000 0.000000 0.000000 0.000000 0.000000 0.615053 -0.552555 0.139298 -1.545276 -2.038459 0.315616 -1.048866 1.858675 -0.062387 0.110363 -3.229075 -0.160512 0.000000 0.000000 0.000000 0.000000 0.000000 0.000000 -0.000000 0.000000 0.000000 -0.000000 0.000000 0.000000 0.740481 -0.818693 -0.143365 -2.120449 -2.970229 0.118629 0.000000 0.000000 0.000000 0.000000 0.000000 0.000000 -0.195688 0.116675 -14.849894 -0.000000 0.000000 0.000000 2.316891 -10.858318 0.352831 0.000000 0.000000 0.000000 -0.195688 0.116675 -14.849894 -0.000000 0.000000 0.000000 12.991279 0.245528 -6.048510 0.000000 0.000000 0.000000
27.848302 75.858986 368.040395 0.325283 -0.101743 15.057476 -0.287684 0.182753 -15.056729 -0.000000 0.000000 0.000000 -0.000000 0.000000 0.000000 0.000000 0.000000 0.000000 0.847769 -0.849561 0.206823 -2.175515 -2.785023 0.435575 -1.277137 2.560749 -0.111305 0.067200 -4.110194 -0.203533 0.000000 0.000000 0.000000 0.000000 0.000000 0.000000 -0.000000 0.000000 0.000000 -0.000000 0.000000 0.000000 0.799080 -1.013566 -0.130797 -3.037895 -3.990766 0.240317 0.000000 0.000000 0.000000 0.000000 0.000000 0.000000 0.269618 -0.607796 -14.799596 -0.740790 0.621929 -0.251045 3.560966 -16.521554 1.155543 0.000000 0.000000 0.000000 -0.287684 0.182753 -15.056729 -0.000000 0.000000 0.000000 17.160369 1.889014 -10.488711 0.000000 0.000000 0.000000
28.001237 75.795010 368.003006 0.429373 -0.146061 15.208849 -0.376021 0.253582 -15.207469 -0.000000 0.000000 0.000000 -0.000000 0.000000 0.000000 0.000000 0.000000 0.000000 1.030572 -1.160571 0.272544 -2.712439 -3.351456 0.533749 -1.345339 3.100232 -0.182725 0.009927 -4.467432 -0.208792 0.000000 0.000000 0.000000 0.000000 0.000000 0.000000 -0.000000 0.000000 0.000000 -0.000000 0.000000 0.000000 0.658683 -1.071266 -0.066400 -3.860895 -4.677035 0.405205 0.000000 0.000000 0.000000 0.000000 0.000000 0.000000 0.212811 -0.655907 -14.916973 -1.661444 0.620885 -0.488450 5.800882 -21.791573 2.681817 0.000000 0.000000 0.000000 0.283453 -0.236600 -15.220484 -0.765038 0.299840 0.014919 19.831195 4.596455 -15.853975 0.000000 0.000000 0.000000
28.165083 75.733871 367.962932 0.531368 -0.195581 15.304796 -0.460907 0.328893 -15.302566 -0.000000 0.000000 0.000000 -0.287431 0.756334 0.138288 0.000000 0.000000 0.000000 1.163419 -1.485723 0.336124 -3.157094 -3.739195 0.612099 -1.267532 3.469902 -0.282654 -0.039411 -4.275882 -0.169471 0.000000 0.000000 0.000000 0.000000 0.000000 0.000000 -0.000000 0.000000 0.000000 -0.098661 0.890427 0.122070 0.419225 -1.887442 -0.066881 -4.587044 -5.023579 0.615601 0.000000 0.000000 0.000000 0.000000 0.000000 0.000000 0.089131 -0.633375 -15.002749 -1.795917 0.630632 -0.536020 7.327861 -26.522434 4.551693 0.000000 0.000000 0.000000 0.242487 -0.122186 -15.300988 -0.797497 0.249466 -0.001111 21.172158 8.403923 -21.953722 0.000000 0.000000 0.000000
28.379616 75.656588 367.903360 0.672621 -0.250129 15.294924 -0.582832 0.418681 -15.291326 -0.000000 0.000000 0.000000 -0.314837 0.896725 0.165615 0.000000 0.000000 0.000000 1.334299 -2.009317 0.435299 -3.634506 -3.781055 0.656909 -0.716508 3.644295 -0.516924 -0.620626 -2.974241 0.091958 0.000000 0.000000 0.000000 0.000000 0.000000 0.000000 -0.000000 0.000000 0.000000 -0.244388 1.057921 0.177719 0.241147 -1.058665 -0.173235 -6.096969 -7.844677 0.857042 0.000000 0.000000 0.000000 0.000000 0.000000 0.000000 -0.113455 -0.528828 -15.003723 -1.896426 0.512929 -0.573119 9.252294 -31.187664 8.107389 0.000000 0.000000 0.000000 0.553109 0.470834 -15.119051 -1.083025 -0.346516 -0.184368 16.708864 18.916257 -31.010932 0.000000 0.000000 0.000000
28.587001 75.588152 367.853051 0.787459 -0.313297 15.255542 -0.677301 0.509427 -15.250378 -0.000000 0.000000 0.000000 -0.414099 0.951516 0.172205 0.000000 0.000000 0.000000 1.304089 -2.322185 0.480249 -3.780665 -4.010132 0.710970 0.231253 2.898186 -0.983629 -0.944445 -1.332635 0.365932 0.000000 0.000000 0.000000 0.000000 0.000000 0.000000 -0.000000 0.000000 0.000000 -0.461199 1.209671 0.250312 -0.267496 -2.145241 0.183275 -6.619961 -5.378747 1.253818 0.000000 0.000000 0.000000 0.000000 0.000000 0.000000 -0.339920 -0.339568 -15.001219 -1.903199 0.340282 -0.580891 10.924527 -34.415317 10.840376 0.000000 0.000000 0.000000 -0.677301 0.509427 -15.250378 -0.875567 0.011398 -0.208209 21.733973 21.412045 -37.448357 0.000000 0.000000 0.000000
28.766946 75.541506 367.809109 0.876347 -0.384795 15.188121 -0.744966 0.600904 -15.181271 -0.000000 0.000000 0.000000 -0.648615 0.976458 0.166520 0.000000 0.000000 0.000000 1.206717 -2.489050 0.494792 -3.614041 -4.585306 0.751370 0.021170 4.481887 -0.881393 -0.101839 -1.513050 0.099608 0.000000 0.000000 0.000000 0.000000 0.000000 0.000000 -0.000000 0.000000 0.000000 -0.417911 1.080277 0.224673 -0.926185 -1.583229 0.363675 -6.650552 -3.624281 1.732163 0.000000 0.000000 0.000000 0.000000 0.000000 0.000000 -0.744966 0.600904 -15.181271 -1.371700 -0.465585 -0.359094 11.148024 -34.622467 11.723730 0.000000 0.000000 0.000000 -0.744966 0.600904 -15.181271 -1.193010 -0.189115 -0.311870 21.813359 24.855594 -40.804231 0.000000 0.000000 0.000000
28.908044 75.518226 367.793795 0.890572 -0.475187 15.122648 -0.735817 0.691016 -15.114518 -0.000000 0.000000 0.000000 -0.808163 1.002786 0.164660 0.000000 0.000000 0.000000 1.230269 -2.607774 0.515745 -3.671599 -5.137656 0.801572 -0.892678 7.031576 -0.399600 0.301359 1.049903 0.147115 0.000000 0.000000 0.000000 0.000000 0.000000 0.000000 -0.000000 0.000000 0.000000 -0.453082 0.855522 0.208432 -2.237006 -0.907397 0.815893 -5.829277 -3.020124 1.635162 0.000000 0.000000 0.000000 0.000000 0.000000 0.000000 -0.735817 0.691016 -15.114518 -1.414887 -0.525251 -0.372580 9.554073 -30.611080 10.750223 0.000000 0.000000 0.000000 -0.735817 0.691016 -15.114518 -1.876268 -0.281534 -0.490272 23.624408 27.475026 -44.566911 0.000000 0.000000 0.000000
29.040393 75.534831 367.791888 0.880755 -0.546561 15.230482 -0.706303 0.758683 -15.221605 -0.000000 0.000000 0.000000 -0.940995 1.083594 0.175519 0.000000 0.000000 0.000000 1.231134 -2.679304 0.526836 -4.180557 -4.110384 0.816409 -0.801358 6.621240 -0.270060 0.103378 0.335052 0.128996 0.000000 0.000000 0.000000 0.000000 0.000000 0.000000 -0.000000 0.000000 0.000000 -0.784813 1.085515 0.319377 -2.946631 -1.200273 1.095590 -5.306197 -3.478219 1.287061 0.000000 0.000000 0.000000 0.000000 0.000000 0.000000 -0.706303 0.758683 -15.221605 -1.416899 -0.598093 -0.376331 10.555543 -32.664149 12.749648 0.000000 0.000000 0.000000 -0.706303 0.758683 -15.221605 -2.457311 -0.770853 -0.703693 25.003423 29.452431 -46.974033 0.000000 0.000000 0.000000
29.227752 75.596654 367.801017 0.962821 -0.597661 15.404568 -0.769558 0.831872 -15.393959 -0.000000 0.000000 0.000000 -0.927826 1.164751 0.193128 0.000000 0.000000 0.000000 1.100050 -2.737764 0.520442 -5.342379 -2.036937 0.942162 -0.821391 6.200061 0.136784 -0.872725 0.559285 0.350559 0.000000 0.000000 0.000000 0.000000 0.000000 0.000000 -0.000000 0.000000 0.000000 -1.435457 1.430081 0.527927 -3.904291 -0.498977 1.332412 -5.628298 -3.384644 1.668246 0.000000 0.000000 0.000000 0.000000 0.000000 0.000000 -1.785200 0.994014 -15.511475 -0.376928 -0.520252 -0.238220 14.717588 -40.498813 17.131009 0.000000 0.000000 0.000000 -0.769558 0.831872 -15.393959 -2.721612 -1.263668 -0.842789 25.338235 30.154071 -47.313470 0.000000 0.000000 0.000000
29.226681 75.646238 367.810925 0.736626 -0.652373 15.683752 -0.532908 0.827172 -15.675712 -0.000000 0.000000 0.000000 -0.875171 1.259497 0.215285 0.000000 0.000000 0.000000 -0.001167 -2.506994 0.358533 -5.587653 1.655337 1.098011 -2.552400 4.677380 1.164472 -1.277883 -2.323461 0.014903 0.000000 0.000000 0.000000 0.000000 0.000000 0.000000 -0.000000 0.000000 0.000000 -4.540373 4.561731 1.791898 -0.599770 -0.372792 -0.396375 -5.463348 -6.689845 1.703944 0.000000 0.000000 0.000000 0.000000 0.000000 0.000000 -1.455228 1.204245 -15.838994 -0.547476 -0.745887 -0.231112 17.844105 -45.188481 19.360336 0.000000 0.000000 0.000000 -0.532908 0.827172 -15.675712 -2.702610 -1.762483 -0.912416 24.280502 30.988430 -46.650712 0.000000 0.000000 0.000000
